<svg width="300" height="300" viewBox="0 0 300 300" fill="none" xmlns="http://www.w3.org/2000/svg">
<circle cx="150" cy="150" r="150" fill="#BCE5E8"/>
<g filter="url(#filter0_i)">
<path d="M135.449 187.387C135.449 188.038 135.417 188.526 135.352 188.852C135.026 188.982 134.766 189.177 134.57 189.438C134.375 189.633 134.049 189.698 133.594 189.633C133.464 190.609 133.138 191.423 132.617 192.074C132.096 192.725 131.543 193.311 130.957 193.832C130.436 194.418 129.915 195.004 129.395 195.59C128.874 196.241 128.548 197.055 128.418 198.031C127.441 198.552 126.465 199.236 125.488 200.082C124.577 200.993 123.763 201.612 123.047 201.938C122.526 202.198 121.973 202.393 121.387 202.523C120.801 202.719 120.215 202.947 119.629 203.207C117.741 204.053 115.788 204.932 113.77 205.844C111.816 206.755 109.766 207.211 107.617 207.211H106.934C106.673 207.471 106.348 207.634 105.957 207.699C105.566 207.829 105.176 207.927 104.785 207.992C104.395 208.057 104.004 208.155 103.613 208.285C103.223 208.415 102.93 208.611 102.734 208.871C102.018 208.611 101.237 208.48 100.391 208.48H99.707C98.6003 208.741 97.5586 208.936 96.582 209.066C95.6055 209.197 94.5638 209.262 93.457 209.262C91.5039 209.262 89.5508 209.132 87.5977 208.871C85.6445 208.611 83.6914 208.383 81.7383 208.188C80.5013 207.211 79.4922 205.974 78.7109 204.477C77.9297 203.044 77.5391 201.514 77.5391 199.887C77.5391 198.65 77.7995 197.478 78.3203 196.371C78.8411 195.329 79.5247 194.385 80.3711 193.539H80.6641C81.25 193.539 81.8359 193.409 82.4219 193.148C83.0729 192.888 83.6914 192.758 84.2773 192.758C84.9284 192.758 85.4492 193.018 85.8398 193.539C86.2956 194.06 86.6211 194.678 86.8164 195.395C87.0768 196.111 87.2396 196.827 87.3047 197.543C87.3698 198.324 87.4023 198.943 87.4023 199.398C88.1185 199.724 88.8672 199.919 89.6484 199.984C90.4948 200.049 91.3411 200.082 92.1875 200.082C93.0339 200.082 93.9779 200.017 95.0195 199.887C96.0612 199.822 97.1029 199.659 98.1445 199.398C99.2513 199.203 100.293 198.943 101.27 198.617C102.311 198.292 103.19 197.868 103.906 197.348C107.487 197.022 110.645 196.208 113.379 194.906C116.113 193.604 119.01 192.074 122.07 190.316C122.201 189.6 122.461 189.047 122.852 188.656C123.307 188.201 123.535 187.549 123.535 186.703C123.535 186.573 123.503 186.443 123.438 186.312C123.438 186.117 123.438 185.954 123.438 185.824C122.135 184.197 120.768 182.764 119.336 181.527C117.969 180.29 116.178 179.477 113.965 179.086C113.704 178.5 113.281 178.077 112.695 177.816C112.109 177.491 111.491 177.198 110.84 176.938C110.189 176.677 109.57 176.417 108.984 176.156C108.398 175.831 107.975 175.31 107.715 174.594C105.957 174.268 104.134 173.878 102.246 173.422C100.423 172.901 98.8607 171.99 97.5586 170.688C96.5169 170.622 95.5078 170.427 94.5312 170.102C93.6198 169.711 92.7083 169.353 91.7969 169.027C90.8854 168.637 89.9414 168.311 88.9648 168.051C87.9883 167.725 86.9792 167.562 85.9375 167.562C85.6771 167.107 85.319 166.749 84.8633 166.488C84.4076 166.228 83.8867 166 83.3008 165.805C82.7799 165.609 82.2591 165.414 81.7383 165.219C81.2826 164.958 80.9245 164.6 80.6641 164.145C80.4036 164.21 80.2083 164.34 80.0781 164.535C79.9479 164.73 79.7201 164.828 79.3945 164.828H79.0039C78.8737 164.438 78.6133 164.177 78.2227 164.047C77.832 163.852 77.6042 163.493 77.5391 162.973C76.3672 162.908 75.293 162.68 74.3164 162.289C73.4049 161.898 72.526 161.475 71.6797 161.02C70.8984 160.499 70.0846 160.01 69.2383 159.555C68.3919 159.099 67.4479 158.741 66.4062 158.48C65.7552 157.96 65.1367 157.406 64.5508 156.82C64.0299 156.169 63.3464 155.844 62.5 155.844C62.3047 155.844 61.9466 155.909 61.4258 156.039C61.2956 154.867 60.8073 154.053 59.9609 153.598C59.1146 153.077 58.2031 152.621 57.2266 152.23C56.5755 150.538 55.6966 149.04 54.5898 147.738C53.4831 146.436 52.2786 145.232 50.9766 144.125C51.1068 143.734 51.1719 143.441 51.1719 143.246C51.1719 142.595 51.0091 142.042 50.6836 141.586C50.3581 141.065 50 140.642 49.6094 140.316C48.6979 137.387 48.2422 134.522 48.2422 131.723C48.2422 127.816 49.1211 124.203 50.8789 120.883C52.5716 117.497 55.2734 114.958 58.9844 113.266C59.0495 112.745 59.2122 112.289 59.4727 111.898C59.7982 111.508 59.9935 111.052 60.0586 110.531C60.6445 110.531 61.1003 110.401 61.4258 110.141C61.7513 109.88 62.0443 109.62 62.3047 109.359C62.6302 109.034 62.9557 108.741 63.2812 108.48C63.6068 108.22 64.0299 108.057 64.5508 107.992C67.0247 105.844 69.6615 104.118 72.4609 102.816C75.2604 101.449 78.125 100.049 81.0547 98.6172C81.6406 98.3568 82.1289 97.8685 82.5195 97.1523H83.1055C83.7565 97.1523 84.2448 97.0221 84.5703 96.7617C84.9609 96.4362 85.5143 96.3385 86.2305 96.4688C86.4909 96.0781 86.8164 95.8177 87.207 95.6875C87.6628 95.5573 88.0859 95.4596 88.4766 95.3945C88.9323 95.2643 89.3555 95.1016 89.7461 94.9062C90.1367 94.7109 90.3971 94.418 90.5273 94.0273H91.2109C92.3177 94.0273 93.3919 93.8646 94.4336 93.5391C95.4753 93.1484 96.5169 92.7253 97.5586 92.2695H98.2422C99.5443 92.2695 100.749 92.0417 101.855 91.5859C103.027 91.0651 104.264 90.707 105.566 90.5117C106.087 90.3815 106.608 90.349 107.129 90.4141C107.65 90.4792 108.171 90.5117 108.691 90.5117C109.017 90.5117 109.408 90.4792 109.863 90.4141C110.319 90.349 110.645 90.1536 110.84 89.8281H111.035C111.426 89.8281 111.654 89.9583 111.719 90.2188C111.784 90.4792 111.979 90.6094 112.305 90.6094C112.76 90.6094 113.216 90.5443 113.672 90.4141C114.128 90.2839 114.583 90.2188 115.039 90.2188C116.992 90.2188 118.913 90.4141 120.801 90.8047C122.754 91.1953 124.674 91.5534 126.562 91.8789C126.693 92.6602 127.018 93.2135 127.539 93.5391C128.125 93.8646 128.743 94.1576 129.395 94.418V94.8086C129.395 95.3294 129.525 95.7526 129.785 96.0781C129.525 96.9896 129.069 97.6732 128.418 98.1289C127.767 98.5846 127.051 98.9753 126.27 99.3008C126.595 99.5612 126.79 99.9193 126.855 100.375C126.921 100.831 126.953 101.254 126.953 101.645V102.816L126.465 102.719C125.423 102.719 124.902 103.207 124.902 104.184C124.056 103.663 123.112 103.337 122.07 103.207C121.094 103.077 120.117 103.012 119.141 103.012C117.839 103.012 116.471 103.077 115.039 103.207C113.607 103.272 112.207 103.24 110.84 103.109C110.319 103.76 109.668 104.249 108.887 104.574C108.105 104.835 107.324 104.965 106.543 104.965C105.697 104.965 104.883 104.802 104.102 104.477C103.32 104.086 102.767 103.533 102.441 102.816C102.116 102.686 101.823 102.621 101.562 102.621H100.684C99.6419 102.621 98.6003 102.751 97.5586 103.012C96.582 103.207 95.5729 103.467 94.5312 103.793C93.4896 104.053 92.4479 104.346 91.4062 104.672C90.4297 104.932 89.4206 105.095 88.3789 105.16C87.9883 105.681 87.4674 106.039 86.8164 106.234C86.1654 106.43 85.6445 106.788 85.2539 107.309C83.8867 107.569 82.6497 108.025 81.543 108.676C80.4362 109.262 79.362 109.913 78.3203 110.629L75.293 112.68C74.3164 113.331 73.2096 113.884 71.9727 114.34C71.0612 115.316 70.2148 116.098 69.4336 116.684C68.6523 117.27 67.6432 117.79 66.4062 118.246C65.625 118.507 65.1693 118.897 65.0391 119.418C64.974 119.939 64.7135 120.46 64.2578 120.98C63.8672 121.436 63.3789 121.794 62.793 122.055C62.2721 122.25 61.8164 122.608 61.4258 123.129C61.1003 123.585 60.8398 124.138 60.6445 124.789C60.5143 125.375 60.3516 125.961 60.1562 126.547C59.9609 127.133 59.7331 127.719 59.4727 128.305C59.2122 128.826 58.8216 129.281 58.3008 129.672C58.3008 129.932 58.2682 130.193 58.2031 130.453C58.2031 130.714 58.2031 130.941 58.2031 131.137C58.2031 132.048 58.3008 132.992 58.4961 133.969C58.7565 134.88 58.9193 135.792 58.9844 136.703C60.2865 138.982 61.8164 141.065 63.5742 142.953C65.332 144.776 67.2201 146.469 69.2383 148.031C71.2565 149.594 73.3398 151.059 75.4883 152.426C77.7018 153.793 79.8828 155.128 82.0312 156.43C82.8125 156.365 83.5286 156.462 84.1797 156.723C84.8307 156.918 85.5143 157.048 86.2305 157.113C87.0117 157.699 87.9232 158.155 88.9648 158.48L92.0898 159.457C93.1315 159.783 94.1406 160.173 95.1172 160.629C96.0938 161.02 96.9076 161.573 97.5586 162.289C97.8841 162.354 98.1771 162.452 98.4375 162.582C98.6979 162.647 98.9909 162.68 99.3164 162.68C99.707 162.68 99.9349 162.549 100 162.289C102.93 163.396 105.794 164.633 108.594 166C111.393 167.302 114.355 168.311 117.48 169.027C118.717 170.069 120.085 170.98 121.582 171.762C123.079 172.543 124.577 173.357 126.074 174.203C127.572 174.984 129.004 175.863 130.371 176.84C131.738 177.751 132.943 178.858 133.984 180.16C134.115 181.397 134.375 182.602 134.766 183.773C135.221 184.88 135.449 186.085 135.449 187.387ZM240.723 216.293C240.723 216.879 240.495 217.4 240.039 217.855C239.648 218.311 239.16 218.669 238.574 218.93C237.988 219.255 237.37 219.548 236.719 219.809C236.133 220.069 235.612 220.297 235.156 220.492C234.44 220.102 233.691 219.841 232.91 219.711C232.194 219.581 231.543 219.255 230.957 218.734H230.273C229.232 218.734 228.418 218.865 227.832 219.125C226.921 218.799 226.172 218.311 225.586 217.66C225 217.074 224.447 216.423 223.926 215.707C223.405 215.056 222.884 214.405 222.363 213.754C221.842 213.103 221.191 212.549 220.41 212.094C219.238 208.839 218.197 205.551 217.285 202.23C216.374 198.91 215.69 195.525 215.234 192.074C215.365 191.749 215.462 191.391 215.527 191C215.592 190.609 215.625 190.251 215.625 189.926C215.625 189.665 215.56 189.405 215.43 189.145C215.365 188.819 215.169 188.624 214.844 188.559C215.169 188.038 215.365 187.452 215.43 186.801C215.56 186.085 215.625 185.434 215.625 184.848C215.625 183.546 215.495 182.471 215.234 181.625C215.625 181.299 215.788 180.779 215.723 180.062C215.658 179.281 215.82 178.728 216.211 178.402C215.885 177.296 215.723 176.221 215.723 175.18C215.723 173.747 215.885 172.348 216.211 170.98C216.602 169.613 216.797 168.214 216.797 166.781C216.797 166.456 216.764 166.13 216.699 165.805C216.699 165.479 216.667 165.154 216.602 164.828C216.927 163.786 217.22 162.745 217.48 161.703C217.806 160.596 217.969 159.49 217.969 158.383C217.969 157.602 217.839 156.951 217.578 156.43C218.424 153.435 219.01 150.473 219.336 147.543C219.727 144.548 220.085 141.521 220.41 138.461C220.345 138.331 220.28 138.233 220.215 138.168C220.15 138.103 220.117 138.005 220.117 137.875C220.117 137.549 220.28 137.289 220.605 137.094C220.996 136.898 221.159 136.54 221.094 136.02C220.312 136.801 219.661 137.712 219.141 138.754C218.685 139.796 218.229 140.837 217.773 141.879C217.383 142.921 216.927 143.962 216.406 145.004C215.951 145.98 215.332 146.859 214.551 147.641C214.486 148.357 214.258 149.04 213.867 149.691C213.542 150.342 213.379 151.059 213.379 151.84C213.314 151.84 213.249 151.84 213.184 151.84C213.118 151.775 213.021 151.742 212.891 151.742C212.63 151.742 212.435 151.905 212.305 152.23C212.24 152.556 212.044 152.654 211.719 152.523C210.221 155.453 208.561 158.318 206.738 161.117C204.98 163.917 202.669 166.163 199.805 167.855C199.284 167.66 198.796 167.562 198.34 167.562C197.493 167.562 196.647 167.823 195.801 168.344C195.02 168.799 194.499 169.027 194.238 169.027C193.587 169.027 192.773 168.702 191.797 168.051C190.885 167.335 189.941 166.944 188.965 166.879C187.923 166.163 187.044 165.447 186.328 164.73C185.677 163.949 184.668 163.493 183.301 163.363C182.389 161.996 181.478 160.694 180.566 159.457C179.72 158.22 178.874 157.016 178.027 155.844C177.246 154.607 176.53 153.305 175.879 151.938C175.293 150.57 174.837 149.04 174.512 147.348C174.577 147.217 174.609 147.087 174.609 146.957C174.609 146.566 174.414 146.404 174.023 146.469C173.698 146.534 173.535 146.339 173.535 145.883V145.199C173.535 144.678 173.438 144.223 173.242 143.832C173.112 143.376 173.079 142.888 173.145 142.367C172.689 141.651 172.331 140.902 172.07 140.121C171.81 139.34 171.354 138.656 170.703 138.07V137.191C170.703 136.801 170.671 136.443 170.605 136.117C170.605 135.727 170.508 135.401 170.312 135.141C170.182 134.815 169.954 134.62 169.629 134.555C169.564 132.211 169.076 129.835 168.164 127.426C167.318 124.952 166.536 122.576 165.82 120.297C165.299 121.99 164.909 123.715 164.648 125.473C164.388 127.165 164.258 128.891 164.258 130.648V132.309C164.258 132.829 164.323 133.35 164.453 133.871C164.258 134.197 163.965 134.424 163.574 134.555C163.249 134.685 163.053 134.945 162.988 135.336C162.923 135.661 162.891 135.987 162.891 136.312C162.956 136.638 162.956 136.964 162.891 137.289C162.76 138.852 162.565 140.349 162.305 141.781C161.914 143.93 161.458 146.111 160.938 148.324C160.417 150.473 160.156 152.686 160.156 154.965C160.156 155.095 160.156 155.29 160.156 155.551C160.221 155.746 160.254 155.909 160.254 156.039C159.212 156.951 158.659 158.09 158.594 159.457C158.529 160.824 158.366 162.126 158.105 163.363C157.78 165.186 157.389 167.009 156.934 168.832C156.478 170.59 156.087 172.413 155.762 174.301C155.566 175.342 155.404 176.384 155.273 177.426C155.143 178.402 155.013 179.411 154.883 180.453C154.818 181.039 154.59 181.527 154.199 181.918C153.874 182.309 153.646 182.764 153.516 183.285C153.451 183.741 153.418 184.262 153.418 184.848C153.483 185.368 153.516 185.857 153.516 186.312C153.516 187.094 153.451 187.842 153.32 188.559C153.19 189.21 152.799 189.796 152.148 190.316C152.279 192.009 152.572 193.441 153.027 194.613C153.483 195.85 154.004 197.217 154.59 198.715H157.031V199.105C157.031 199.757 157.129 200.342 157.324 200.863C157.585 201.384 158.073 201.612 158.789 201.547C158.724 201.807 158.691 202.133 158.691 202.523C158.691 203.109 158.789 203.63 158.984 204.086C159.245 204.607 159.44 205.16 159.57 205.746C158.268 207.895 156.868 209.49 155.371 210.531C153.874 211.573 151.823 212.094 149.219 212.094H147.656C147.331 211.052 146.94 210.043 146.484 209.066C146.029 208.09 145.573 207.113 145.117 206.137C144.727 205.16 144.368 204.151 144.043 203.109C143.783 202.133 143.652 201.091 143.652 199.984C143.652 199.724 143.685 199.464 143.75 199.203C143.815 199.008 143.848 198.78 143.848 198.52C143.848 198.194 143.717 197.999 143.457 197.934C143.197 197.868 143.066 197.543 143.066 196.957C143.066 196.501 143.034 196.078 142.969 195.688C142.969 195.297 142.969 194.874 142.969 194.418C142.969 192.27 143.132 190.154 143.457 188.07C143.783 185.922 144.01 183.773 144.141 181.625C144.466 181.299 144.629 180.876 144.629 180.355C144.629 179.835 144.792 179.411 145.117 179.086V178.402C145.117 177.23 145.247 176.059 145.508 174.887C145.768 173.715 146.061 172.576 146.387 171.469C146.712 170.362 147.005 169.223 147.266 168.051C147.526 166.879 147.656 165.707 147.656 164.535V162.973C147.656 162.517 147.852 162.322 148.242 162.387C148.698 162.387 148.958 162.126 149.023 161.605C149.154 160.694 149.219 159.815 149.219 158.969C149.284 158.057 149.382 157.146 149.512 156.234C149.837 154.477 150.195 152.719 150.586 150.961C150.977 149.138 151.172 147.315 151.172 145.492V145.199C151.172 145.004 151.335 144.613 151.66 144.027C151.986 143.376 152.148 142.758 152.148 142.172C152.148 141.716 152.051 141.293 151.855 140.902C151.921 140.967 152.051 141 152.246 141C152.507 141 152.669 140.935 152.734 140.805C152.865 140.609 153.027 140.447 153.223 140.316C153.027 140.056 152.93 139.796 152.93 139.535C152.93 139.21 152.962 138.917 153.027 138.656C153.158 138.331 153.223 138.005 153.223 137.68C153.223 137.224 152.995 136.898 152.539 136.703C153.32 135.271 153.874 133.741 154.199 132.113C154.59 130.486 154.85 128.826 154.98 127.133C155.176 125.44 155.339 123.747 155.469 122.055C155.599 120.297 155.892 118.637 156.348 117.074C156.217 116.684 156.12 116.26 156.055 115.805C156.055 115.349 156.055 114.926 156.055 114.535C156.055 114.275 156.022 114.014 155.957 113.754C155.892 113.428 155.924 113.135 156.055 112.875C156.055 112.745 156.087 112.582 156.152 112.387L156.348 111.801C156.478 111.345 156.543 110.889 156.543 110.434C156.608 109.913 156.673 109.392 156.738 108.871C156.868 107.374 156.901 105.844 156.836 104.281C156.836 102.719 156.901 101.156 157.031 99.5938C156.836 99.3333 156.641 99.138 156.445 99.0078C156.25 98.8125 156.12 98.5521 156.055 98.2266C156.576 97.3151 157.129 96.4688 157.715 95.6875C158.366 94.8411 159.212 94.1901 160.254 93.7344C160.449 94.4505 160.97 94.8086 161.816 94.8086C162.207 94.8086 162.695 94.7109 163.281 94.5156C163.867 94.3203 164.258 94.0599 164.453 93.7344C165.56 94.125 166.667 94.3203 167.773 94.3203C168.945 94.2552 170.02 94.5156 170.996 95.1016C171.191 96.0781 171.452 97.0872 171.777 98.1289C172.103 99.1706 172.559 100.115 173.145 100.961C173.275 101.807 173.405 102.849 173.535 104.086C173.665 105.258 173.796 106.495 173.926 107.797C174.056 109.034 174.251 110.238 174.512 111.41C174.772 112.517 175.13 113.396 175.586 114.047C175.651 115.219 175.846 116.391 176.172 117.562C176.497 118.734 176.855 119.874 177.246 120.98C177.637 122.022 177.962 122.999 178.223 123.91C178.548 124.822 178.711 125.57 178.711 126.156C178.711 126.677 178.613 127.035 178.418 127.23C178.288 127.361 178.158 127.621 178.027 128.012C178.288 128.728 178.646 129.346 179.102 129.867C179.557 130.323 180.046 130.876 180.566 131.527C181.543 135.238 182.812 138.852 184.375 142.367C185.938 145.883 187.826 149.268 190.039 152.523C190.625 152.589 191.081 152.751 191.406 153.012C191.797 153.272 192.383 153.337 193.164 153.207V153.891C193.164 154.542 193.294 154.997 193.555 155.258C194.141 155.648 194.824 155.844 195.605 155.844C196.452 155.844 197.103 155.616 197.559 155.16C198.079 154.639 198.568 154.053 199.023 153.402C199.479 152.751 199.935 152.133 200.391 151.547C200.846 150.961 201.465 150.57 202.246 150.375V150.18C202.246 149.659 202.344 149.236 202.539 148.91C202.799 148.52 202.93 148.096 202.93 147.641C203.646 147.12 204.199 146.469 204.59 145.688C204.98 144.906 205.339 144.125 205.664 143.344C205.99 142.497 206.348 141.716 206.738 141C207.194 140.284 207.78 139.698 208.496 139.242C209.408 136.443 210.514 133.839 211.816 131.43C213.118 129.021 214.486 126.579 215.918 124.105C215.918 123.91 215.885 123.715 215.82 123.52C215.755 123.259 215.723 123.031 215.723 122.836C215.723 122.771 215.788 122.478 215.918 121.957C216.243 121.306 216.536 120.688 216.797 120.102C217.057 119.516 217.285 118.865 217.48 118.148C218.132 116.13 218.717 114.145 219.238 112.191C219.824 110.238 220.671 108.383 221.777 106.625V104.184C222.949 101.84 223.763 99.3659 224.219 96.7617C224.74 94.1576 225.358 91.6185 226.074 89.1445C226.204 88.4284 226.432 87.7122 226.758 86.9961C227.148 86.2148 227.604 85.6615 228.125 85.3359C227.93 84.9453 227.832 84.5547 227.832 84.1641C227.832 83.6432 227.897 83.1875 228.027 82.7969C228.223 82.3411 228.385 81.8854 228.516 81.4297C228.32 80.974 228.223 80.388 228.223 79.6719C228.223 78.7604 228.483 77.9141 229.004 77.1328C229.525 76.2865 230.306 75.7331 231.348 75.4727C231.999 75.668 232.552 75.9935 233.008 76.4492C233.464 76.9049 233.887 77.3932 234.277 77.9141C234.733 78.3698 235.189 78.7604 235.645 79.0859C236.165 79.3464 236.816 79.4115 237.598 79.2812C238.118 80.2578 238.477 81.2995 238.672 82.4062C238.867 83.4479 238.965 84.5221 238.965 85.6289C238.965 87.1263 238.835 88.6888 238.574 90.3164C238.314 91.8789 238.216 93.474 238.281 95.1016C237.76 96.1432 237.37 97.2826 237.109 98.5195C236.914 99.6914 236.719 100.896 236.523 102.133C236.328 103.37 236.1 104.574 235.84 105.746C235.579 106.918 235.124 108.025 234.473 109.066C234.277 111.996 234.049 114.861 233.789 117.66C233.594 120.46 233.268 123.259 232.812 126.059L231.934 131.625C231.803 132.081 231.673 132.602 231.543 133.188C231.413 133.708 231.348 134.164 231.348 134.555C231.348 134.945 231.38 135.368 231.445 135.824C231.51 136.215 231.706 136.508 232.031 136.703C231.576 137.354 231.25 138.135 231.055 139.047C230.859 139.958 230.664 140.935 230.469 141.977L229.98 145.004C229.85 145.98 229.59 146.859 229.199 147.641V148.715C229.199 151.319 228.743 153.988 227.832 156.723V157.211C227.832 157.536 227.799 157.829 227.734 158.09C227.734 158.285 227.734 158.546 227.734 158.871C227.734 159.327 227.865 159.685 228.125 159.945C227.604 161.638 227.116 163.396 226.66 165.219C226.204 166.977 225.879 168.799 225.684 170.688C225.488 173.227 225.456 175.831 225.586 178.5C225.716 181.104 225.391 183.643 224.609 186.117C225 187.289 225.26 188.559 225.391 189.926L225.781 194.027C225.911 195.395 226.107 196.697 226.367 197.934C226.693 199.236 227.279 200.31 228.125 201.156C228.19 201.286 228.223 201.482 228.223 201.742C228.223 202.263 228.092 202.654 227.832 202.914C227.962 203.565 228.19 204.118 228.516 204.574C228.841 205.03 229.167 205.453 229.492 205.844C229.818 206.299 230.078 206.788 230.273 207.309C230.534 207.829 230.664 208.48 230.664 209.262C231.185 209.978 231.999 210.531 233.105 210.922C234.212 211.312 235.319 211.703 236.426 212.094C237.598 212.484 238.607 212.973 239.453 213.559C240.299 214.21 240.723 215.121 240.723 216.293Z" fill="white"/>
</g>
<defs>
<filter id="filter0_i" x="48.2422" y="75.4727" width="192.48" height="149.02" filterUnits="userSpaceOnUse" color-interpolation-filters="sRGB">
<feFlood flood-opacity="0" result="BackgroundImageFix"/>
<feBlend mode="normal" in="SourceGraphic" in2="BackgroundImageFix" result="shape"/>
<feColorMatrix in="SourceAlpha" type="matrix" values="0 0 0 0 0 0 0 0 0 0 0 0 0 0 0 0 0 0 127 0" result="hardAlpha"/>
<feOffset dy="4"/>
<feGaussianBlur stdDeviation="2"/>
<feComposite in2="hardAlpha" operator="arithmetic" k2="-1" k3="1"/>
<feColorMatrix type="matrix" values="0 0 0 0 0 0 0 0 0 0 0 0 0 0 0 0 0 0 0.25 0"/>
<feBlend mode="normal" in2="shape" result="effect1_innerShadow"/>
</filter>
</defs>
</svg>
