<svg width="50" height="50" viewBox="0 0 50 50" fill="none" xmlns="http://www.w3.org/2000/svg">
<path d="M16.9839 8.88C18.6106 8.88 20.2372 9.2 21.8639 9.84L21.3439 12.8L20.8639 12.92C20.1172 12.3333 19.4106 11.9067 18.7439 11.64C18.0772 11.3467 17.3839 11.2 16.6639 11.2C15.5172 11.2 14.6106 11.5067 13.9439 12.12C13.2772 12.7067 12.9439 13.3867 12.9439 14.16C12.9439 14.9333 13.2639 15.56 13.9039 16.04C14.5706 16.52 15.5839 17.0533 16.9439 17.64C18.1439 18.1733 19.0906 18.6533 19.7839 19.08C20.5039 19.5067 21.1172 20.08 21.6239 20.8C22.1572 21.4933 22.4239 22.3467 22.4239 23.36C22.4239 24.4 22.1439 25.3733 21.5839 26.28C21.0239 27.16 20.1972 27.88 19.1039 28.44C18.0372 28.9733 16.7572 29.24 15.2639 29.24C14.3306 29.24 13.3439 29.1333 12.3039 28.92C11.2906 28.68 10.3439 28.3333 9.46391 27.88L9.82391 24.72L10.2239 24.56C10.9706 25.3067 11.8372 25.8933 12.8239 26.32C13.8372 26.72 14.7706 26.92 15.6239 26.92C16.7439 26.92 17.6639 26.6267 18.3839 26.04C19.1039 25.4267 19.4639 24.6933 19.4639 23.84C19.4639 23.04 19.1306 22.4 18.4639 21.92C17.8239 21.44 16.8106 20.88 15.4239 20.24C14.2772 19.7333 13.3306 19.2667 12.5839 18.84C11.8639 18.4133 11.2506 17.8533 10.7439 17.16C10.2372 16.44 9.98391 15.5733 9.98391 14.56C9.98391 13.4933 10.2639 12.5333 10.8239 11.68C11.4106 10.8267 12.2239 10.1467 13.2639 9.64C14.3306 9.13333 15.5706 8.88 16.9839 8.88Z" fill="white"/>
<path d="M41.1477 38H38.4677L38.0277 31.92L36.9477 22.72H36.7077L30.9877 35.76H28.6277L23.2277 22.72H22.9877L21.9477 31.68L21.3877 38H18.8277L21.0277 18.08H24.5077L25.5077 21.08L29.8677 31.8H30.1077L34.6677 20.92L35.7077 18.08H39.1077L41.1477 38Z" fill="white"/>
<circle cx="25" cy="25" r="24.5" stroke="white"/>
</svg>
